<mxfile host="app.diagrams.net" agent="Mozilla/5.0 (X11; Linux x86_64) AppleWebKit/537.36 (KHTML, like Gecko) Chrome/131.0.0.0 Safari/537.36" version="26.0.5">
  <diagram name="Page-1" id="RsEKDYQLnlldj3J1hexR">
    <mxGraphModel dx="2074" dy="1096" grid="1" gridSize="10" guides="1" tooltips="1" connect="1" arrows="1" fold="1" page="1" pageScale="1" pageWidth="850" pageHeight="1100" math="0" shadow="0">
      <root>
        <mxCell id="0" />
        <mxCell id="1" parent="0" />
        <UserObject label="┌────────────────────────────────────────────────────────────────┐&#xa;   │                        External Services                       │&#xa;   │                                                                │&#xa;   │  Congress.gov API  ──────────────────┐                        │&#xa;   │                                       │  (2) Summaries/Args    │&#xa;   │                     OpenAI ChatGPT API ─────────────────────┐  │&#xa;   └────────────────────────────────────────────────────────────────┘ │&#xa;                     (1) Legislative Data                          │&#xa;                                                                    ▼&#xa;   ┌────────────────────────────────────────┐    ┌───────────────────────────┐&#xa;   │       Data Ingestion (Cron/Lambda)    │    │  Summary/Analysis Service │&#xa;   └────────────────────────────────────────┘    └───────────────────────────┘&#xa;                                │                              │&#xa;                                │                              │&#xa;                                ▼                              ▼&#xa;   ┌─────────────────────────────────────────────────────────────────────────┐&#xa;   │                              Database (RDS / DynamoDB)                 │&#xa;   │      - Bills / Legislative Data                                       │&#xa;   │      - Processed Summaries / Arguments                                │&#xa;   │      - User Feedback / Donations                                      │&#xa;   └─────────────────────────────────────────────────────────────────────────┘&#xa;                                ^&#xa;                                │&#xa;                          ┌────────────────────────────────┐&#xa;                          │      Backend API Services      │&#xa;                          │  (Lambda / ECS + API Gateway)  │&#xa;                          └────────────────────────────────┘&#xa;                                │               ^&#xa;                                │               │&#xa;                         ┌──────┴───────┐       │&#xa;                         │  AWS Cognito │       │&#xa;                         └──────────────┘       │&#xa;                                │               │&#xa;                                ▼               │&#xa;               ┌────────────────────────────────────────────────┐&#xa;               │         Web Frontend (React/Angular)           │&#xa;               │   (Hosted on S3 + CloudFront or similar)       │&#xa;               └────────────────────────────────────────────────┘&#xa;                                ▲&#xa;                                │&#xa;               ┌────────────────────────────────────────────────┐&#xa;               │ Users (Staffers, Advocacy Groups, Public)      │&#xa;               └────────────────────────────────────────────────┘" link="┌────────────────────────────────────────────────────────────────┐&#xa;   │                        External Services                       │&#xa;   │                                                                │&#xa;   │  Congress.gov API  ──────────────────┐                        │&#xa;   │                                       │  (2) Summaries/Args    │&#xa;   │                     OpenAI ChatGPT API ─────────────────────┐  │&#xa;   └────────────────────────────────────────────────────────────────┘ │&#xa;                     (1) Legislative Data                          │&#xa;                                                                    ▼&#xa;   ┌────────────────────────────────────────┐    ┌───────────────────────────┐&#xa;   │       Data Ingestion (Cron/Lambda)    │    │  Summary/Analysis Service │&#xa;   └────────────────────────────────────────┘    └───────────────────────────┘&#xa;                                │                              │&#xa;                                │                              │&#xa;                                ▼                              ▼&#xa;   ┌─────────────────────────────────────────────────────────────────────────┐&#xa;   │                              Database (RDS / DynamoDB)                 │&#xa;   │      - Bills / Legislative Data                                       │&#xa;   │      - Processed Summaries / Arguments                                │&#xa;   │      - User Feedback / Donations                                      │&#xa;   └─────────────────────────────────────────────────────────────────────────┘&#xa;                                ^&#xa;                                │&#xa;                          ┌────────────────────────────────┐&#xa;                          │      Backend API Services      │&#xa;                          │  (Lambda / ECS + API Gateway)  │&#xa;                          └────────────────────────────────┘&#xa;                                │               ^&#xa;                                │               │&#xa;                         ┌──────┴───────┐       │&#xa;                         │  AWS Cognito │       │&#xa;                         └──────────────┘       │&#xa;                                │               │&#xa;                                ▼               │&#xa;               ┌────────────────────────────────────────────────┐&#xa;               │         Web Frontend (React/Angular)           │&#xa;               │   (Hosted on S3 + CloudFront or similar)       │&#xa;               └────────────────────────────────────────────────┘&#xa;                                ▲&#xa;                                │&#xa;               ┌────────────────────────────────────────────────┐&#xa;               │ Users (Staffers, Advocacy Groups, Public)      │&#xa;               └────────────────────────────────────────────────┘" id="Y4CiuYzb-xdPosVlTnSi-1">
          <mxCell style="text;whiteSpace=wrap;" vertex="1" parent="1">
            <mxGeometry x="100" y="110" width="560" height="730" as="geometry" />
          </mxCell>
        </UserObject>
      </root>
    </mxGraphModel>
  </diagram>
</mxfile>
